<svg width="900" height="340" viewBox="0 0 900 340" xmlns="http://www.w3.org/2000/svg">
  <defs>
    <linearGradient id="lcTitleGrad" x1="0" y1="0" x2="1" y2="0">
      <stop offset="0" stop-color="#818cf8" />
      <stop offset="1" stop-color="#c084fc" />
    </linearGradient>
    <linearGradient id="lcAreaGrad" x1="0" y1="0" x2="0" y2="1">
      <stop offset="0" stop-color="#c084fc" stop-opacity="0.35" />
      <stop offset="1" stop-color="#c084fc" stop-opacity="0" />
    </linearGradient>
    <linearGradient id="lcLineGrad" x1="0" y1="0" x2="1" y2="0">
      <stop offset="0" stop-color="#818cf8" />
      <stop offset="1" stop-color="#c084fc" />
    </linearGradient>
  </defs>

  <rect x="0" y="0" width="900" height="340" rx="16" fill="#05050a" />

  <text x="32" y="38" font-size="22" font-weight="700" fill="url(#lcTitleGrad)" font-family="'Segoe UI', sans-serif">
    LeetCode Contest Rating
  </text>
  <text x="32" y="62" font-size="13" fill="rgba(255,255,255,0.45)" font-family="'Segoe UI', sans-serif">
    34 rated contests &#183; 928 problems solved &#183; @1rahulkhanna
  </text>

  <text x="868" y="38" text-anchor="end" font-size="30" font-weight="700" fill="#ffffff" font-family="'Segoe UI', sans-serif">
    2295
  </text>
  <text x="868" y="60" text-anchor="end" font-size="12" fill="#c084fc" font-family="'Segoe UI', sans-serif">
    peak 2295
  </text>

  <line x1="56" y1="300.0" x2="868" y2="300.0" stroke="rgba(255,255,255,0.06)" />
  <text x="46" y="304.0" text-anchor="end" font-size="11" fill="rgba(255,255,255,0.35)" font-family="'Fira Code', monospace">1200</text>
  <line x1="56" y1="264.7" x2="868" y2="264.7" stroke="rgba(255,255,255,0.06)" />
  <text x="46" y="268.7" text-anchor="end" font-size="11" fill="rgba(255,255,255,0.35)" font-family="'Fira Code', monospace">1400</text>
  <line x1="56" y1="229.3" x2="868" y2="229.3" stroke="rgba(255,255,255,0.06)" />
  <text x="46" y="233.3" text-anchor="end" font-size="11" fill="rgba(255,255,255,0.35)" font-family="'Fira Code', monospace">1600</text>
  <line x1="56" y1="194.0" x2="868" y2="194.0" stroke="rgba(255,255,255,0.06)" />
  <text x="46" y="198.0" text-anchor="end" font-size="11" fill="rgba(255,255,255,0.35)" font-family="'Fira Code', monospace">1800</text>
  <line x1="56" y1="158.7" x2="868" y2="158.7" stroke="rgba(255,255,255,0.06)" />
  <text x="46" y="162.7" text-anchor="end" font-size="11" fill="rgba(255,255,255,0.35)" font-family="'Fira Code', monospace">2000</text>
  <line x1="56" y1="123.3" x2="868" y2="123.3" stroke="rgba(255,255,255,0.06)" />
  <text x="46" y="127.3" text-anchor="end" font-size="11" fill="rgba(255,255,255,0.35)" font-family="'Fira Code', monospace">2200</text>
  <line x1="56" y1="88.0" x2="868" y2="88.0" stroke="rgba(255,255,255,0.06)" />
  <text x="46" y="92.0" text-anchor="end" font-size="11" fill="rgba(255,255,255,0.35)" font-family="'Fira Code', monospace">2400</text>

  <path d="M 56.0,300.0 L 56.0,262.5 L 80.6,273.2 L 105.2,273.7 L 129.8,275.1 L 154.4,276.7 L 179.0,283.5 L 203.6,271.7 L 228.2,262.7 L 252.8,260.8 L 277.5,262.8 L 302.1,254.6 L 326.7,252.2 L 351.3,248.3 L 375.9,248.2 L 400.5,246.6 L 425.1,241.9 L 449.7,245.0 L 474.3,244.8 L 498.9,248.2 L 523.5,241.5 L 548.1,240.1 L 572.7,247.0 L 597.3,236.8 L 621.9,228.2 L 646.5,229.7 L 671.2,213.2 L 695.8,202.5 L 720.4,188.4 L 745.0,168.1 L 769.6,153.7 L 794.2,140.6 L 818.8,131.0 L 843.4,123.6 L 868.0,106.5 L 868.0,300.0 Z" fill="url(#lcAreaGrad)" />
  <path d="M 56.0,262.5 L 80.6,273.2 L 105.2,273.7 L 129.8,275.1 L 154.4,276.7 L 179.0,283.5 L 203.6,271.7 L 228.2,262.7 L 252.8,260.8 L 277.5,262.8 L 302.1,254.6 L 326.7,252.2 L 351.3,248.3 L 375.9,248.2 L 400.5,246.6 L 425.1,241.9 L 449.7,245.0 L 474.3,244.8 L 498.9,248.2 L 523.5,241.5 L 548.1,240.1 L 572.7,247.0 L 597.3,236.8 L 621.9,228.2 L 646.5,229.7 L 671.2,213.2 L 695.8,202.5 L 720.4,188.4 L 745.0,168.1 L 769.6,153.7 L 794.2,140.6 L 818.8,131.0 L 843.4,123.6 L 868.0,106.5" fill="none" stroke="url(#lcLineGrad)" stroke-width="2.4" stroke-linejoin="round" stroke-linecap="round" />

  <circle cx="868.0" cy="106.5" r="8" fill="#c084fc" opacity="0.25">
    <animate attributeName="r" values="6;11;6" dur="2.2s" repeatCount="indefinite" />
    <animate attributeName="opacity" values="0.3;0.08;0.3" dur="2.2s" repeatCount="indefinite" />
  </circle>
  <circle cx="868.0" cy="106.5" r="3.5" fill="#ffffff" />

  <circle cx="868.0" cy="106.5" r="4" fill="#818cf8" />

  <rect x="0.5" y="0.5" width="899" height="339" rx="16" fill="none" stroke="rgba(129,140,248,0.25)" />
</svg>
